<svg xmlns="http://www.w3.org/2000/svg" width="15.902" height="29.818" viewBox="0 0 15.902 29.818"><path d="M106.493,342.681a3.353,3.353,0,0,1,.569-.256,5.52,5.52,0,0,1,.64-.192l1.3-.235h.853l6.02.426h.024l-.616,5.03h-.024l-3.318-.32h-.1l-.332.043-.118.043-.379.17a.313.313,0,0,0-.19.106l-.284.277a1.093,1.093,0,0,0-.166.255,1.512,1.512,0,0,0-.118.277,1.893,1.893,0,0,0-.071.32,2,2,0,0,0-.024.32l.048,3.154,4.882.044-.711,4.987-4.218.148v14.511l-.027.027h-6.588V357.152H100v-5.008h3.412V352.1l.024-.064.118-5.35.047-.3v-.149l.048-.149a1.088,1.088,0,0,1,.1-.321.939.939,0,0,1,.142-.276,2.213,2.213,0,0,1,.26-.576,2.869,2.869,0,0,1,.356-.532,2.683,2.683,0,0,1,.4-.448,4,4,0,0,1,.45-.426v-.02Z" transform="translate(-100 -341.998)"/></svg>