<svg xmlns="http://www.w3.org/2000/svg" width="30" height="26.339" viewBox="0 0 30 26.339"><path d="M29.841,141.535q-.054-.181-.1-.3a24.212,24.212,0,0,0-2.983-5.312l-.031-.048-.016-.024-.016-.024h-.016q-1-1.466-1.265-1.971a2.659,2.659,0,0,1-.219-1.947A20.722,20.722,0,0,1,26.6,128.76q.641-1.274,1.015-2.043,2.7-5.529,2.343-7.066l-.093-.24a.912.912,0,0,0-.484-.4,1.628,1.628,0,0,0-1-.06l-4.5.048a.389.389,0,0,0-.312.012l-.2.072-.078.06-.062.072a.946.946,0,0,0-.172.252,2.01,2.01,0,0,0-.156.421,50.943,50.943,0,0,1-1.672,5.408q-.578,1.49-1.062,2.584a13.184,13.184,0,0,1-.812,1.61,7.554,7.554,0,0,1-.594.829q-.266.313-.406.265c-.094-.032-.182-.064-.266-.1a1.541,1.541,0,0,1-.351-.589,3.753,3.753,0,0,1-.18-.937q-.047-.565-.055-.973t.008-1.154q.016-.745.016-1.009,0-.914.023-1.983t.039-1.694q.016-.625.016-1.322a8.486,8.486,0,0,0-.055-1.094,5.274,5.274,0,0,0-.164-.769,1.3,1.3,0,0,0-.32-.577,1.536,1.536,0,0,0-.523-.325,6.915,6.915,0,0,0-2.109-.312q-2.905-.048-3.733.577a2.568,2.568,0,0,0-.593.721q-.281.529-.078.577a1.848,1.848,0,0,1,1.328,1.033l.094.289a6.518,6.518,0,0,1,.219,1.106,16.924,16.924,0,0,1,.14,1.754,28.763,28.763,0,0,1,0,3q-.078,1.25-.148,1.947a5.575,5.575,0,0,1-.211,1.13q-.141.433-.188.529a.375.375,0,0,1-.078.12.821.821,0,0,1-.422.12.84.84,0,0,1-.531-.337,5.057,5.057,0,0,1-.648-.925,13.745,13.745,0,0,1-.758-1.647q-.422-1.057-.875-2.5l-.25-.7q-.234-.673-.64-1.959t-.719-2.488a1.693,1.693,0,0,0-.375-.769l-.078-.072a1.042,1.042,0,0,0-.25-.2,1.249,1.249,0,0,0-.359-.156L1,118.953a.906.906,0,0,0-.89.457l-.063.144a1.145,1.145,0,0,0-.047.385,2.82,2.82,0,0,0,.094.649q.937,3.389,2.038,6.538T4.045,132.2q.812,1.923,1.656,3.629t1.117,2.187q.274.481.43.721l.391.577a11.625,11.625,0,0,0,1.1,1.382,20.2,20.2,0,0,0,1.609,1.587,7.4,7.4,0,0,0,2.054,1.273,4.773,4.773,0,0,0,2.28.4h1.8a1.094,1.094,0,0,0,.828-.529l.062-.12a2.141,2.141,0,0,0,.117-.444,3.694,3.694,0,0,0,.055-.661,12.086,12.086,0,0,1,.1-1.863,6.871,6.871,0,0,1,.266-1.25,3.364,3.364,0,0,1,.336-.709,1.718,1.718,0,0,1,.266-.349.889.889,0,0,1,.125-.084q.375-.192.883.373a7.117,7.117,0,0,1,.953,1.394q.445.83,1.07,1.863a9.821,9.821,0,0,0,1.093,1.538l.312.288a3.3,3.3,0,0,0,.813.529,1.178,1.178,0,0,0,.874.12l4-.1a1.316,1.316,0,0,0,.922-.3,1.168,1.168,0,0,0,.391-.661,2.843,2.843,0,0,0,.008-.818A4.36,4.36,0,0,0,29.841,141.535Z" transform="translate(0 -117.748)"/></svg>